<?xml version="1.0" encoding="iso-8859-1"?>
<!-- Generator: Adobe Illustrator 19.0.0, SVG Export Plug-In . SVG Version: 6.00 Build 0)  -->
<svg version="1.1" id="Layer_1" xmlns="http://www.w3.org/2000/svg" xmlns:xlink="http://www.w3.org/1999/xlink" x="0px" y="0px"
	 viewBox="0 0 512 512" style="enable-background:new 0 0 512 512;" xml:space="preserve">
<g>
	<circle style="fill:#A6DAE8;" cx="256" cy="256" r="256"/>
	<path style="fill:#95C2D8;" d="M511.918,252.513l-0.184,0.133L304.072,44.273l0,0l0,0l-54.052,40.12
		c-1.439,1.07-2.432,2.596-2.836,4.301c-0.138,0.568-0.205,1.157-0.205,1.751v115.62h-63.58l-4.05,19.057h3.005l-0.527,2.478h3.005
		l-0.527,2.478h0.773l19.948,223.232l59.366,58.491c62.689-2.043,124.78-26.926,172.631-74.783
		C487.895,386.145,512.819,319.191,511.918,252.513z"/>
	<polygon style="fill:#2C5871;" points="306.975,453.309 205.025,453.309 184.632,225.121 327.368,225.121 	"/>
	<polygon style="fill:#FC611F;" points="332.652,225.121 179.348,225.121 183.398,206.065 328.602,206.065 	"/>
	<path style="fill:#FFFFFF;" d="M262.052,206.065h-15.078V90.445c0-2.386,1.132-4.634,3.046-6.057l54.052-40.12l8.991,12.109
		l-51.011,37.857V206.065z"/>
	
		<rect x="299.011" y="49.302" transform="matrix(-0.5958 -0.8031 0.8031 -0.5958 447.5829 328.8855)" style="fill:#FC611F;" width="15.078" height="5.028"/>
	<path style="fill:#FC611F;" d="M273.551,85.704l-8.991-12.109l7.224-5.361l8.991,12.109L273.551,85.704z M291.287,72.54
		l-8.991-12.109l7.224-5.361l8.991,12.109L291.287,72.54z"/>
	<path style="fill:#FC611F;" d="M259.005,96.497l-0.763-1.029h-11.274V90.44c0-2.386,1.132-4.634,3.046-6.052l4.035-2.995
		l6.717,9.047h1.28v1.725l0.988,1.331l-0.988,0.737v1.234h-1.659L259.005,96.497z"/>
	<path style="fill:#FC611F;" d="M262.052,187.412h-15.078v-9.359h15.078V187.412z M262.052,164.429h-15.078v-9.359h15.078V164.429z
		 M262.052,141.445h-15.078v-9.359h15.078V141.445z M262.052,118.456h-15.078v-9.359h15.078V118.456z"/>
	<rect x="246.989" y="201.062" style="fill:#FC611F;" width="15.078" height="5.028"/>
	<polygon style="fill:#FFFFFF;" points="311.414,403.62 323.19,271.846 188.81,271.846 200.586,403.62 	"/>
	<polygon style="fill:#0F303F;" points="256,225.121 256,453.309 306.975,453.309 327.368,225.121 	"/>
	<polygon style="fill:#D7ECED;" points="256,271.846 256,403.62 311.414,403.62 323.19,271.846 	"/>
	<polygon style="fill:#E64500;" points="256,225.121 332.652,225.121 328.602,206.065 256,206.065 	"/>
</g>
<g>
</g>
<g>
</g>
<g>
</g>
<g>
</g>
<g>
</g>
<g>
</g>
<g>
</g>
<g>
</g>
<g>
</g>
<g>
</g>
<g>
</g>
<g>
</g>
<g>
</g>
<g>
</g>
<g>
</g>
</svg>
