<?xml version="1.0" encoding="iso-8859-1"?>
<!-- Generator: Adobe Illustrator 18.0.0, SVG Export Plug-In . SVG Version: 6.00 Build 0)  -->
<!DOCTYPE svg PUBLIC "-//W3C//DTD SVG 1.1//EN" "http://www.w3.org/Graphics/SVG/1.1/DTD/svg11.dtd">
<svg version="1.1" id="Capa_1" xmlns="http://www.w3.org/2000/svg" xmlns:xlink="http://www.w3.org/1999/xlink" x="0px" y="0px"
	 viewBox="0 0 203 203" style="enable-background:new 0 0 203 203;" xml:space="preserve">
<g>
	<circle style="fill:#F0AF1D;" cx="101.5" cy="101.5" r="101.5"/>
	<g>
		<path style="opacity:0.2;fill:#FFFFFF;" d="M103.971,57.521c22.691,0,41.305-4.658,43.22-10.594h0.17l-6.695,122.211H67.273
			L60.592,46.928h0.159C62.666,52.863,81.278,57.521,103.971,57.521z"/>
		<path style="fill:#FFFFFF;" d="M60.708,46.737c1.915,5.935,20.527,10.596,43.219,10.596c0.009,0,0.016,0,0.025,0
			c0.008,0,0.017,0,0.024,0c22.691,0,41.305-4.66,43.22-10.596h0.171c0,0-7.537,114.977-7.537,117.225
			c0,2.248-0.395,6.917-7.576,6.917c-3.096,0-15.354,0-28.302,0c-12.947,0-25.206,0-28.302,0c-7.182,0-7.575-4.669-7.575-6.917
			c0-2.247-7.537-117.225-7.537-117.225H60.708z"/>
		<path style="fill:#E3E4E5;" d="M103.976,57.333c-22.692,0-41.304-4.66-43.221-10.596c-0.108-0.331-0.173-0.668-0.173-1.01
			c0-6.41,19.428-11.606,43.394-11.606c23.966,0,43.393,5.196,43.393,11.606c0,0.342-0.065,0.679-0.174,1.01
			C145.28,52.673,126.667,57.333,103.976,57.333z"/>
		<g>
			<path style="fill:#CF3D22;" d="M103.976,104.016c-20.266,0-36.696-8.232-36.696-13.881c0-5.651,16.431-10.231,36.696-10.231
				c20.268,0,36.698,4.58,36.698,10.231C140.674,95.783,124.243,104.016,103.976,104.016z"/>
			<path style="fill:#E44326;" d="M103.926,100.363c0.009,0,0.017,0,0.025,0c0.008,0,0.017,0,0.024,0
				c20.268,0,36.698-4.58,36.698-10.229c0,0-5.03,70.059-5.03,71.512c0,1.454-0.334,4.329-4.677,4.329c-1.976,0-14.238,0-27.016,0
				c-12.776,0-25.039,0-27.016,0c-4.341,0-4.675-2.875-4.675-4.329c0-1.453-5.031-71.512-5.031-71.512
				C67.229,95.783,83.659,100.363,103.926,100.363z"/>
		</g>
	</g>
</g>
<g>
</g>
<g>
</g>
<g>
</g>
<g>
</g>
<g>
</g>
<g>
</g>
<g>
</g>
<g>
</g>
<g>
</g>
<g>
</g>
<g>
</g>
<g>
</g>
<g>
</g>
<g>
</g>
<g>
</g>
</svg>
