<?xml version="1.0" encoding="iso-8859-1"?>
<!-- Generator: Adobe Illustrator 19.0.0, SVG Export Plug-In . SVG Version: 6.00 Build 0)  -->
<svg version="1.1" id="Layer_1" xmlns="http://www.w3.org/2000/svg" xmlns:xlink="http://www.w3.org/1999/xlink" x="0px" y="0px"
	 viewBox="0 0 512 512" style="enable-background:new 0 0 512 512;" xml:space="preserve">
<path style="fill:#FA690E;" d="M511.155,276.799C511.707,269.939,512,263.003,512,256C512,114.616,397.385,0,256,0S0,114.616,0,256
	c0,129.416,96.038,236.385,220.73,253.57L511.155,276.799z"/>
<path style="fill:#F94C10;" d="M511.155,276.799l-85.107-85.107l-60.57,29.095L255.996,111.304l-38.957,38.957l-38.957-38.957
	L72.622,361.463L220.73,509.571C232.261,511.16,244.031,512,256,512C390.381,512.001,500.568,408.456,511.155,276.799z"/>
<path style="fill:#BEC130;" d="M178.083,111.303c-67.619,0-122.435,54.816-122.435,122.435s54.816,122.435,122.435,122.435v-22.261
	L122.43,233.738l55.652-100.174V111.303z"/>
<path style="fill:#FFF3AD;" d="M77.909,233.738c0,55.325,44.85,100.174,100.174,100.174V133.564
	C122.758,133.564,77.909,178.413,77.909,233.738z"/>
<path style="fill:#F72E12;" d="M255.996,111.303c-67.619,0-122.435,54.816-122.435,122.435s54.816,122.435,122.435,122.435v-22.261
	l-55.652-100.174l55.652-100.174V111.303z"/>
<path style="fill:#FFF3AD;" d="M155.822,233.738c0,55.325,44.85,100.174,100.174,100.174V133.564
	C200.671,133.564,155.822,178.413,155.822,233.738z"/>
<path style="fill:#FDA409;" d="M339.478,155.828c67.608,0,122.435,54.826,122.435,122.435s-54.826,122.435-122.435,122.435
	l-48.974-122.435L339.478,155.828z"/>
<path style="fill:#FFC207;" d="M339.478,155.828v244.87c-67.608,0-122.435-54.826-122.435-122.435S271.87,155.828,339.478,155.828z"
	/>
<path style="fill:#FFF3AD;" d="M339.478,178.089c55.316,0,100.174,44.858,100.174,100.174s-44.858,100.174-100.174,100.174
	l-40.07-100.174L339.478,178.089z"/>
<path style="fill:#FFFFFF;" d="M339.478,178.089v200.348c-55.316,0-100.174-44.858-100.174-100.174S284.162,178.089,339.478,178.089
	z"/>
<g>
	<path style="fill:#F94C10;" d="M339.478,200.349l-11.13,22.261l11.13,33.391l28.916-50.084
		C359.451,202.338,349.699,200.349,339.478,200.349z"/>
	<path style="fill:#F94C10;" d="M416.587,267.132c-2.898-20.246-13.584-37.971-28.924-50.067l-28.907,50.067H416.587z"/>
	<path style="fill:#F94C10;" d="M339.478,356.175c10.221,0,19.972-1.989,28.916-5.569l-28.916-50.084l-11.13,33.391L339.478,356.175
		z"/>
	<path style="fill:#F94C10;" d="M387.663,339.46c15.34-12.095,26.025-29.821,28.924-50.067h-57.83L387.663,339.46z"/>
</g>
<g>
	<path style="fill:#FA690E;" d="M310.563,205.917l28.916,50.084v-55.652C329.257,200.349,319.506,202.338,310.563,205.917z"/>
	<path style="fill:#FA690E;" d="M339.478,356.175v-55.652l-28.916,50.084C319.506,354.186,329.257,356.175,339.478,356.175z"/>
	<path style="fill:#FA690E;" d="M262.37,289.392c2.898,20.246,13.584,37.971,28.924,50.067l28.907-50.067H262.37z"/>
	<path style="fill:#FA690E;" d="M291.293,217.065c-15.34,12.095-26.025,29.821-28.924,50.067h57.83L291.293,217.065z"/>
</g>
<path style="fill:#BEC130;" d="M256,178.089c49.17,0,89.043,39.874,89.043,89.043S305.17,356.176,256,356.176l-35.617-89.043
	L256,178.089z"/>
<path style="fill:#DDD532;" d="M256,178.089v178.087c-49.17,0-89.043-39.874-89.043-89.043S206.83,178.089,256,178.089z"/>
<path style="fill:#FFF3AD;" d="M256,244.872c12.292,0,22.261,9.968,22.261,22.261c0,12.292-9.968,22.261-22.261,22.261
	l-8.904-22.261L256,244.872z"/>
<path style="fill:#FFFFFF;" d="M256,244.872v44.522c-12.292,0-22.261-9.968-22.261-22.261
	C233.739,254.84,243.708,244.872,256,244.872z"/>
<g>
	
		<rect x="217.038" y="207.797" transform="matrix(-0.866 0.5 -0.5 -0.866 535.2324 294.4352)" style="fill:#365F2C;" width="22.26" height="22.26"/>
	<rect x="189.217" y="256" style="fill:#365F2C;" width="22.261" height="22.261"/>
	
		<rect x="217.044" y="304.209" transform="matrix(0.866 0.5 -0.5 0.866 188.2438 -71.8401)" style="fill:#365F2C;" width="22.26" height="22.26"/>
</g>
<g>
	
		<rect x="272.707" y="304.209" transform="matrix(0.866 -0.5 0.5 0.866 -119.6441 184.1711)" style="fill:#193D2F;" width="22.26" height="22.26"/>
	<rect x="300.522" y="256" style="fill:#193D2F;" width="22.261" height="22.261"/>
	
		<rect x="272.685" y="207.797" transform="matrix(-0.866 -0.5 0.5 -0.866 420.1382 550.4324)" style="fill:#193D2F;" width="22.26" height="22.26"/>
</g>
<path style="fill:#FFE376;" d="M105.735,217.046l-25.043,50.087l25.043,50.087c27.662,0,50.087-22.424,50.087-50.087
	S133.396,217.046,105.735,217.046z"/>
<path style="fill:#FFF3AD;" d="M55.648,267.133c0,27.662,22.424,50.087,50.087,50.087V217.046
	C78.072,217.046,55.648,239.47,55.648,267.133z"/>
<path style="fill:#FFD23E;" d="M105.735,239.307l-13.913,27.826l13.913,27.826c15.368,0,27.826-12.458,27.826-27.826
	S121.102,239.307,105.735,239.307z"/>
<g>
	<path style="fill:#FFE376;" d="M77.909,267.133c0,15.368,12.458,27.826,27.826,27.826v-55.652
		C90.367,239.307,77.909,251.764,77.909,267.133z"/>
	<path style="fill:#FFE376;" d="M183.648,217.046l-25.043,50.087l25.043,50.087c27.662,0,50.087-22.424,50.087-50.087
		S211.309,217.046,183.648,217.046z"/>
</g>
<path style="fill:#FFF3AD;" d="M133.561,267.133c0,27.662,22.424,50.087,50.087,50.087V217.046
	C155.985,217.046,133.561,239.47,133.561,267.133z"/>
<path style="fill:#FFD23E;" d="M183.648,239.307l-13.913,27.826l13.913,27.826c15.368,0,27.826-12.458,27.826-27.826
	S199.016,239.307,183.648,239.307z"/>
<path style="fill:#FFE376;" d="M155.822,267.133c0,15.368,12.458,27.826,27.826,27.826v-55.652
	C168.28,239.307,155.822,251.764,155.822,267.133z"/>
<path style="fill:#C9E5FF;" d="M255.996,267.133l-44.522,63.443l44.522,70.122h89.043c73.461,0,133.565-60.104,133.565-133.565
	H255.996L255.996,267.133z"/>
<path style="fill:#FFFFFF;" d="M255.996,267.133v133.565h-89.043c-73.461,0-133.565-60.104-133.565-133.565H255.996L255.996,267.133
	z"/>
<path style="fill:#FC870B;" d="M255.996,289.394h198.111c-10.34,50.744-55.318,89.043-109.067,89.043h-89.043l-22.261-44.522
	L255.996,289.394z"/>
<path style="fill:#DDD532;" d="M255.996,289.394v89.043h-89.043c-53.749,0-98.727-38.3-109.067-89.043H255.996z"/>
<g>
</g>
<g>
</g>
<g>
</g>
<g>
</g>
<g>
</g>
<g>
</g>
<g>
</g>
<g>
</g>
<g>
</g>
<g>
</g>
<g>
</g>
<g>
</g>
<g>
</g>
<g>
</g>
<g>
</g>
</svg>
