<?xml version="1.0" encoding="iso-8859-1"?>
<!-- Generator: Adobe Illustrator 19.0.0, SVG Export Plug-In . SVG Version: 6.00 Build 0)  -->
<svg version="1.1" id="Layer_1" xmlns="http://www.w3.org/2000/svg" xmlns:xlink="http://www.w3.org/1999/xlink" x="0px" y="0px"
	 viewBox="0 0 406.006 406.006" style="enable-background:new 0 0 406.006 406.006;" xml:space="preserve">
<g>
	<rect x="24.639" y="31.129" style="fill:#CFEDFF;" width="356.73" height="343.74"/>
	<rect x="41.006" y="156.434" style="fill:#4CCFC7;" width="116.211" height="218.443"/>
	<rect x="47.244" y="163.169" style="fill:#CFEDFF;" width="103.734" height="152.457"/>
	<rect x="51.369" y="167.889" style="fill:#2D4151;" width="95.485" height="143.016"/>
	<rect x="47.244" y="323.89" style="fill:#CFEDFF;" width="103.734" height="37.986"/>
	<rect x="165.98" y="156.434" style="fill:#4CCFC7;" width="196.703" height="158.457"/>
	<rect x="170.98" y="161.434" style="fill:#CFEDFF;" width="186.703" height="148.457"/>
	<rect x="175.98" y="166.434" style="fill:#2D4151;" width="176.703" height="138.457"/>
	<rect x="24.639" y="76.921" style="fill:#ACD2E5;" width="356.73" height="10"/>
	<path style="fill:#4CCFC7;" d="M157.217,149.406H41.006v-4.077c0-32.091,26.015-58.105,58.105-58.105l0,0
		c32.091,0,58.105,26.015,58.105,58.105L157.217,149.406L157.217,149.406z"/>
	<path style="fill:#CFEDFF;" d="M46.014,144.406c0.493-28.86,24.123-52.183,53.098-52.183s52.604,23.323,53.098,52.183H46.014z"/>
	<path style="fill:#2D4151;" d="M51.372,139.406c2.951-23.681,23.382-42.183,47.74-42.183s44.789,18.502,47.74,42.183H51.372z"/>
	<rect x="51.369" y="328.346" style="fill:#2D4151;" width="95.485" height="28.103"/>
	<g>
		<rect x="77.562" y="96.953" style="fill:#CFEDFF;" width="6.433" height="42.453"/>
		<rect x="114.229" y="96.953" style="fill:#CFEDFF;" width="6.433" height="42.453"/>
	</g>
	<path style="fill:#ACD2E5;" d="M349.1,118.889h-19.125c-1.07,0-1.938-0.867-1.938-1.938v-7.625c0-1.07,0.867-1.938,1.938-1.938
		H349.1c1.07,0,1.938,0.867,1.938,1.938v7.625C351.038,118.021,350.17,118.889,349.1,118.889z"/>
	<g>
		<rect x="77.562" y="325.884" style="fill:#CFEDFF;" width="6.433" height="34.189"/>
		<rect x="114.229" y="325.884" style="fill:#CFEDFF;" width="6.433" height="34.189"/>
	</g>
	<path style="fill:#ACD2E5;" d="M338.998,110.355v22.42c-7.73,0.06-13.97,6.35-13.97,14.09c0,0.25,0.01,0.49,0.02,0.73h-118.09
		c0.01-0.24,0.02-0.48,0.02-0.73c0-7.75-6.25-14.04-13.98-14.09v-22.42c7.78,0,14.09-6.31,14.09-14.09h117.94
		C325.028,104.005,331.268,110.295,338.998,110.355z"/>
	<path style="fill:#FFFFFF;" d="M334.309,105.666v22.42c-7.73,0.06-13.97,6.35-13.97,14.09c0,0.25,0.01,0.49,0.02,0.73h-118.09
		c0.01-0.24,0.02-0.48,0.02-0.73c0-7.75-6.25-14.04-13.98-14.09v-22.42c7.78,0,14.09-6.31,14.09-14.09h117.94
		C320.339,99.316,326.579,105.606,334.309,105.666z"/>
	<g>
		<path style="fill:#30A9E5;" d="M234.372,130.721c-0.872,0-3.448-0.789-4.113-1.038c-0.54-0.208-0.706-0.623-0.748-1.08
			c0.208-6.024,3.365-21.145,5.068-24.967c0.166-0.374,0.623-0.623,1.122-0.623c0.582,0,4.902,0.872,6.688,1.62
			c0.457,0.208,0.498,0.665,0.498,1.08c0.042,1.62,0.042,7.81,0,11.632c0,0.166,0.042,0.332,0.125,0.332s0.208-0.291,0.208-0.291
			c1.745-4.362,3.698-9.929,5.692-13.917c0.208-0.332,0.54-0.582,0.997-0.582c1.288,0,5.94,1.246,7.311,1.869
			c0.374,0.125,0.54,0.457,0.54,0.789c0,0.125-0.042,0.249-0.042,0.249c-1.371,4.237-3.822,14.831-4.902,24.302
			c-0.041,0.374-0.374,0.623-0.748,0.623c-0.665,0-3.407-0.665-4.196-1.038c-0.498-0.249-0.706-0.623-0.748-1.08
			c0-4.071,2.576-15.08,2.576-15.578c0-0.083-0.042-0.166-0.083-0.166c-0.041,0-0.125,0.083-0.208,0.249
			c-1.62,3.697-3.033,8.225-4.944,13.252c-0.125,0.332-0.498,0.623-0.872,0.623c-0.623,0-3.074-0.789-4.154-1.288
			c-0.498-0.249-0.706-0.748-0.748-1.163c-0.457-3.24-0.333-8.142-0.457-11.59c-0.042-0.208-0.083-0.291-0.125-0.291
			s-0.125,0.083-0.166,0.249c-1.08,4.736-2.119,11.133-2.783,17.199C235.078,130.471,234.746,130.721,234.372,130.721z"/>
		<path style="fill:#30A9E5;" d="M260.793,130.679c-0.664,0-3.406-0.748-4.154-1.08c-0.457-0.208-0.665-0.582-0.665-0.997
			c0-3.49,2.035-14.872,3.157-18.32c0.125-0.374,0.54-0.665,0.997-0.665c0.581,0,3.074,0.582,4.279,1.039
			c0.333,0.125,0.582,0.374,0.582,0.748c0,0.083-0.042,0.291-0.042,0.291c-1.288,5.401-2.783,13.377-3.365,18.279
			C261.499,130.389,261.167,130.679,260.793,130.679z M266.983,104.092c0,2.202-1.537,3.78-4.03,3.78c-2.41,0-3.49-1.62-3.49-3.531
			c0-1.454,0.914-2.576,1.786-3.282c0.291-0.208,0.914-0.415,1.329-0.415C264.573,100.644,266.983,101.641,266.983,104.092z"/>
		<path style="fill:#30A9E5;" d="M269.808,130.639c-0.665,0-3.365-0.789-4.113-1.122c-0.415-0.166-0.665-0.54-0.665-1.122
			c0.208-6.398,3.49-21.934,5.193-26.006c0.166-0.332,0.498-0.582,0.914-0.582c0.789,0,3.822,0.914,4.404,1.205
			c0.332,0.166,0.54,0.457,0.54,0.789c0,0.125-0.042,0.249-0.042,0.249c-1.412,3.988-4.237,15.495-5.484,25.923
			C270.514,130.348,270.181,130.639,269.808,130.639z"/>
		<path style="fill:#30A9E5;" d="M286.133,120.418c0,0.166,0.083,0.291,0.166,0.415c1.288,2.119,2.991,4.486,4.404,5.858
			c0.166,0.166,0.291,0.415,0.291,0.623c0,0.166-0.083,0.374-0.208,0.499c-1.288,1.246-2.991,2.285-4.029,2.742
			c0,0-0.291,0.125-0.54,0.125c-0.333,0-0.623-0.125-0.831-0.332c-1.288-1.246-2.867-4.611-3.656-6.772
			c-0.125-0.415-0.332-0.789-0.665-0.789c-0.374,0-0.581,0.332-0.665,0.789c-0.332,2.119-0.665,4.321-0.914,6.398
			c-0.041,0.415-0.374,0.665-0.748,0.665c-0.789,0-3.448-0.789-4.113-1.08c-0.54-0.249-0.665-0.706-0.665-1.122
			c0.208-6.397,3.49-22.017,5.276-26.047c0.125-0.332,0.457-0.582,0.873-0.582c0.623,0,3.78,0.956,4.403,1.205
			c0.374,0.125,0.54,0.457,0.54,0.789c0,0.125-0.125,0.457-0.125,0.457c-0.872,2.41-2.119,6.979-3.365,13.003
			c0,0-0.042,0.166-0.042,0.249c0,0.249,0.125,0.374,0.291,0.374c0.249,0,0.581-0.332,0.872-0.665
			c2.16-2.492,4.861-5.691,6.024-7.145c0.166-0.208,0.415-0.332,0.665-0.332c0.249,0,0.457,0.166,0.457,0.166
			c0.831,0.582,2.327,1.994,3.116,3.033c0.125,0.166,0.166,0.374,0.166,0.54c0,0.249-0.125,0.457-0.333,0.665
			c-1.163,0.997-3.822,3.531-6.273,5.65C286.3,119.961,286.133,120.169,286.133,120.418z"/>
	</g>
	<g>
		<polygon style="fill:#CCCCCC;" points="239.696,242.971 226.78,233.179 213.863,242.971 213.863,283.081 239.696,283.081 		"/>
		<polygon style="fill:#CCCCCC;" points="213.863,242.971 239.696,242.971 226.78,233.179 		"/>
		<rect x="225.887" y="228.845" style="fill:#CCCCCC;" width="1.785" height="8.668"/>
	</g>
	<g>
		<polygon style="fill:#CCCCCC;" points="221.883,243.223 209.216,233.62 196.55,243.223 196.55,282.557 221.883,282.557 		"/>
		<polygon style="fill:#CCCCCC;" points="196.55,243.223 221.883,243.223 209.216,233.62 		"/>
		<rect x="208.341" y="229.37" style="fill:#CCCCCC;" width="1.75" height="8.5"/>
	</g>
	<polygon style="fill:#FFFFFF;" points="228.979,243.223 216.312,233.62 203.646,243.223 203.646,282.557 228.979,282.557 	"/>
	<polygon style="fill:#E6E6E6;" points="203.646,243.223 228.979,243.223 216.312,233.62 	"/>
	<rect x="246.479" y="229.37" style="fill:#E6E6E6;" width="14.917" height="8.5"/>
	<rect x="215.437" y="229.37" style="fill:#E6E6E6;" width="1.75" height="8.5"/>
	<polygon style="fill:#E6E6E6;" points="273.187,243.223 260.521,233.62 247.854,243.223 247.854,282.557 273.187,282.557 	"/>
	<polygon style="fill:#CCCCCC;" points="247.354,233.62 260.521,233.62 273.187,243.223 245.646,243.223 	"/>
	<polygon style="fill:#FFFFFF;" points="260.021,243.223 247.354,233.62 234.687,243.223 234.687,282.557 260.021,282.557 	"/>
	<polygon style="fill:#E6E6E6;" points="234.687,243.223 260.021,243.223 247.354,233.62 	"/>
	<rect x="207.812" y="252.889" style="fill:#30A9E5;" width="17" height="20"/>
	<rect x="261.979" y="252.889" style="fill:#30A9E5;" width="9.833" height="20"/>
	<path style="fill:#CCCCCC;" d="M305.479,235.266v-5.767h-11.84v5.767c0,3.005-1.091,5.908-3.07,8.17l0,0
		c-1.979,2.262-3.07,5.165-3.07,8.17v34.951h24.118v-34.951c0-3.005-1.091-5.908-3.07-8.17l0,0
		C306.57,241.173,305.479,238.27,305.479,235.266z"/>
	<rect x="236.312" y="252.889" style="fill:#30A9E5;" width="20.667" height="20"/>
	<path style="fill:#2FA3D1;" d="M303.73,223.389h-8.343c-1.443,0-2.613,1.17-2.613,2.613v3.497h13.568v-3.497
		C306.343,224.559,305.173,223.389,303.73,223.389z"/>
	<path style="fill:#CCCCCC;" d="M323.458,235.266v-5.767h-11.84v5.767c0,3.005-1.091,5.908-3.07,8.17l0,0
		c-1.979,2.262-3.07,5.165-3.07,8.17v34.951h24.118v-34.951c0-3.005-1.091-5.908-3.07-8.17l0,0
		C324.549,241.173,323.458,238.27,323.458,235.266z"/>
	<path style="fill:#2FA3D1;" d="M321.71,223.389h-8.343c-1.443,0-2.613,1.17-2.613,2.613v3.497h13.568v-3.497
		C324.322,224.559,323.153,223.389,321.71,223.389z"/>
	<path style="fill:#FFFFFF;" d="M315.75,231.266v-5.767h-11.84v5.767c0,3.005-1.091,5.908-3.07,8.17l0,0
		c-1.979,2.262-3.07,5.165-3.07,8.17v34.951h24.118v-34.951c0-3.005-1.091-5.908-3.07-8.17l0,0
		C316.841,237.173,315.75,234.27,315.75,231.266z"/>
	<path style="fill:#30A9E5;" d="M314.002,219.389h-8.343c-1.443,0-2.613,1.17-2.613,2.613v3.497h13.568v-3.497
		C316.615,220.559,315.445,219.389,314.002,219.389z"/>
	<rect x="302.081" y="250.889" style="fill:#30A9E5;" width="15.5" height="20.5"/>
	<polygon style="fill:#4CCFC7;" points="335.6,282.557 193.063,282.557 175.98,304.89 352.683,304.89 	"/>
	<path style="opacity:0.2;fill:#FCFAFA;enable-background:new    ;" d="M178.947,299.755h167.591v-95.871
		C346.537,203.883,319.624,288.01,178.947,299.755z"/>
	<path style="fill:#ACD2E5;" d="M216.541,335.39h-19.125c-1.07,0-1.938-0.867-1.938-1.938v-7.625c0-1.07,0.867-1.938,1.938-1.938
		h19.125c1.07,0,1.938,0.867,1.938,1.938v7.625C218.479,334.522,217.611,335.39,216.541,335.39z"/>
	<path style="fill:#ACD2E5;" d="M230.541,350.39h-19.125c-1.07,0-1.938-0.867-1.938-1.938v-7.625c0-1.07,0.867-1.938,1.938-1.938
		h19.125c1.07,0,1.938,0.867,1.938,1.938v7.625C232.479,349.522,231.611,350.39,230.541,350.39z"/>
	<path style="fill:#ACD2E5;" d="M326.041,350.39h-19.125c-1.07,0-1.938-0.867-1.938-1.938v-7.625c0-1.07,0.867-1.938,1.938-1.938
		h19.125c1.07,0,1.938,0.867,1.938,1.938v7.625C327.979,349.522,327.111,350.39,326.041,350.39z"/>
	<path style="fill:#ACD2E5;" d="M281.041,367.89h-19.125c-1.07,0-1.938-0.867-1.938-1.938v-7.625c0-1.07,0.867-1.938,1.938-1.938
		h19.125c1.07,0,1.938,0.867,1.938,1.938v7.625C282.979,367.022,282.111,367.89,281.041,367.89z"/>
	<path style="fill:#ACD2E5;" d="M35.149,164.079v7.62c0,1.07-0.87,1.94-1.94,1.94h-8.57v-11.5h8.57
		C34.279,162.139,35.149,163.009,35.149,164.079z"/>
	<path style="fill:#ACD2E5;" d="M168.541,105.139h-19.125c-1.07,0-1.938-0.867-1.938-1.938v-7.625c0-1.07,0.867-1.938,1.938-1.938
		h19.125c1.07,0,1.938,0.867,1.938,1.938v7.625C170.479,104.271,169.611,105.139,168.541,105.139z"/>
	<path style="fill:#ACD2E5;" d="M203.541,367.89h-19.125c-1.07,0-1.938-0.867-1.938-1.938v-7.625c0-1.07,0.867-1.938,1.938-1.938
		h19.125c1.07,0,1.938,0.867,1.938,1.938v7.625C205.479,367.022,204.611,367.89,203.541,367.89z"/>
	<path style="fill:#ACD2E5;" d="M352.6,350.39h-19.125c-1.07,0-1.938-0.867-1.938-1.938v-7.625c0-1.07,0.867-1.938,1.938-1.938
		H352.6c1.07,0,1.938,0.867,1.938,1.938v7.625C354.538,349.522,353.67,350.39,352.6,350.39z"/>
	<path style="fill:#ACD2E5;" d="M376.6,118.889h-19.125c-1.07,0-1.938-0.867-1.938-1.938v-7.625c0-1.07,0.867-1.938,1.938-1.938
		H376.6c1.07,0,1.938,0.867,1.938,1.938v7.625C378.538,118.021,377.67,118.889,376.6,118.889z"/>
	<path style="fill:#ACD2E5;" d="M364.6,133.389h-19.125c-1.07,0-1.938-0.867-1.938-1.938v-7.625c0-1.07,0.867-1.938,1.938-1.938
		H364.6c1.07,0,1.938,0.867,1.938,1.938v7.625C366.538,132.521,365.67,133.389,364.6,133.389z"/>
	<path style="fill:#ACD2E5;" d="M243.041,335.39h-19.125c-1.07,0-1.938-0.867-1.938-1.938v-7.625c0-1.07,0.867-1.938,1.938-1.938
		h19.125c1.07,0,1.938,0.867,1.938,1.938v7.625C244.979,334.522,244.111,335.39,243.041,335.39z"/>
	<g>
		<polygon style="fill:#30A9E5;" points="173.741,31.132 144.713,31.132 136.54,76.921 169.847,76.921 		"/>
		<polygon style="fill:#30A9E5;" points="378.74,76.921 406.006,76.921 381.422,31.132 357.591,31.132 		"/>
		<polygon style="fill:#30A9E5;" points="202.003,31.132 175.748,31.132 171.854,76.921 202.003,76.921 		"/>
		<polygon style="fill:#30A9E5;" points="29.469,76.921 61.912,76.921 78.87,31.132 50.618,31.132 		"/>
		<polygon style="fill:#30A9E5;" points="113.278,31.132 81.002,31.132 64.045,76.921 101.058,76.921 		"/>
		<polygon style="fill:#30A9E5;" points="142.681,31.132 115.349,31.132 103.128,76.921 134.509,76.921 		"/>
		<polygon style="fill:#30A9E5;" points="355.388,31.132 327.137,31.132 344.094,76.921 376.537,76.921 		"/>
		<polygon style="fill:#30A9E5;" points="325.004,31.132 292.728,31.132 304.948,76.921 341.961,76.921 		"/>
		<polygon style="fill:#30A9E5;" points="48.415,31.132 24.584,31.132 0,76.921 27.266,76.921 		"/>
		<polygon style="fill:#30A9E5;" points="230.259,31.132 204.003,31.132 204.003,76.921 234.152,76.921 		"/>
		<polygon style="fill:#30A9E5;" points="290.658,31.132 263.325,31.132 271.497,76.921 302.878,76.921 		"/>
		<polygon style="fill:#30A9E5;" points="261.294,31.132 232.266,31.132 236.159,76.921 269.466,76.921 		"/>
	</g>
	<path style="opacity:0.2;fill:#FCFAFA;enable-background:new    ;" d="M142.806,217.38v91H90.748
		C90.748,308.38,136.428,293.766,142.806,217.38z"/>
	<g>
		<rect x="77.562" y="164.952" style="fill:#CFEDFF;" width="6.433" height="149.522"/>
		<rect x="114.229" y="164.952" style="fill:#CFEDFF;" width="6.433" height="149.522"/>
	</g>
	<g>
		<circle style="fill:#D8D4D5;" cx="98.523" cy="227.434" r="2.469"/>
		<g>
			<polygon style="fill:#C1B9BC;" points="110.473,236.789 98.563,227.771 87.201,236.568 86.865,236.134 98.56,227.08 
				110.805,236.352 			"/>
		</g>
		<path style="fill:#30A9E5;" d="M115.685,244.33c0,2.201-1.8,4-4,4H85.922c-2.2,0-4-1.799-4-4v-5.293c0-2.199,1.8-4,4-4h25.763
			c2.2,0,4,1.801,4,4V244.33z"/>
		<g>
			<path style="fill:#FAFCFC;" d="M90.749,237.427c0.601,0,1.112,0.213,1.533,0.636s0.631,0.933,0.631,1.529v4.935
				c0,0.602-0.212,1.112-0.635,1.533c-0.423,0.421-0.933,0.631-1.529,0.631c-0.601,0-1.111-0.211-1.529-0.635
				c-0.418-0.423-0.628-0.933-0.628-1.529v-4.935c0-0.601,0.212-1.112,0.635-1.533C89.649,237.639,90.157,237.427,90.749,237.427z
				 M91.492,239.564c0-0.217-0.076-0.4-0.227-0.553c-0.152-0.151-0.335-0.227-0.552-0.227c-0.216,0-0.401,0.075-0.555,0.227
				c-0.154,0.152-0.231,0.336-0.231,0.553v4.949c0,0.216,0.077,0.4,0.231,0.551c0.154,0.152,0.339,0.228,0.555,0.228
				c0.217,0,0.4-0.075,0.552-0.228c0.151-0.15,0.227-0.335,0.227-0.551V239.564z"/>
			<path style="fill:#FAFCFC;" d="M96.267,237.544c0.664,0,1.193,0.209,1.587,0.628c0.365,0.398,0.548,0.908,0.548,1.529v1.313
				c0,0.597-0.208,1.106-0.624,1.529c-0.416,0.424-0.92,0.635-1.512,0.635H95.48v3.406h-1.364v-9.04L96.267,237.544L96.267,237.544z
				 M97.083,239.723c0-0.236-0.071-0.426-0.213-0.57s-0.331-0.217-0.566-0.217h-0.822v2.894h0.822c0.217,0,0.4-0.077,0.552-0.231
				c0.151-0.153,0.227-0.338,0.227-0.555V239.723z"/>
			<path style="fill:#FAFCFC;" d="M99.492,246.585v-9.047h3.881v1.37h-2.518v2.468h1.84v1.371h-1.84v2.467h2.518v1.371H99.492z"/>
			<path style="fill:#FAFCFC;" d="M105.842,237.537l1.81,6.08v-6.08h1.364v9.047h-1.465l-1.875-5.793v5.793h-1.364v-9.047H105.842z"
				/>
		</g>
	</g>
</g>
<g>
</g>
<g>
</g>
<g>
</g>
<g>
</g>
<g>
</g>
<g>
</g>
<g>
</g>
<g>
</g>
<g>
</g>
<g>
</g>
<g>
</g>
<g>
</g>
<g>
</g>
<g>
</g>
<g>
</g>
</svg>
